<svg xmlns="http://www.w3.org/2000/svg" xmlns:xlink="http://www.w3.org/1999/xlink" width="600" height="480" viewBox="0 0 600 480"><title>Gnuplot</title><desc>Produced by GNUPLOT 4.6 patchlevel 4</desc><g id="gnuplot_canvas"><rect width="600" height="480" x="0" y="0" fill="none"/><defs><circle id="gpDot" r=".5" stroke-width=".5"/><path id="gpPt0" stroke="currentColor" stroke-width=".222" d="M-1,0 h2 M0,-1 v2"/><path id="gpPt1" stroke="currentColor" stroke-width=".222" d="M-1,-1 L1,1 M1,-1 L-1,1"/><path id="gpPt2" stroke="currentColor" stroke-width=".222" d="M-1,0 L1,0 M0,-1 L0,1 M-1,-1 L1,1 M-1,1 L1,-1"/><rect id="gpPt3" width="2" height="2" x="-1" y="-1" stroke="currentColor" stroke-width=".222"/><rect id="gpPt4" width="2" height="2" x="-1" y="-1" fill="currentColor" stroke="currentColor" stroke-width=".222"/><circle id="gpPt5" cx="0" cy="0" r="1" stroke="currentColor" stroke-width=".222"/><use id="gpPt6" fill="currentColor" stroke="none" xlink:href="#gpPt5"/><path id="gpPt7" stroke="currentColor" stroke-width=".222" d="M0,-1.33 L-1.33,0.67 L1.33,0.67 z"/><use id="gpPt8" fill="currentColor" stroke="none" xlink:href="#gpPt7"/><use id="gpPt9" stroke="currentColor" transform="rotate(180)" xlink:href="#gpPt7"/><use id="gpPt10" fill="currentColor" stroke="none" xlink:href="#gpPt9"/><use id="gpPt11" stroke="currentColor" transform="rotate(45)" xlink:href="#gpPt3"/><use id="gpPt12" fill="currentColor" stroke="none" xlink:href="#gpPt11"/></defs><g style="fill:none;color:#000;stroke:currentColor;stroke-width:1;stroke-linecap:butt;stroke-linejoin:miter"><path stroke="#000" d="M71.9,422.4 L80.9,422.4 M575.0,422.4 L566.0,422.4 h0.01"/><g style="stroke:none;fill:#000;font-family:Arial;font-size:12pt;text-anchor:end"><text transform="translate(63.6,426.9)">0</text></g><path stroke="#000" d="M71.9,321.0 L80.9,321.0 M575.0,321.0 L566.0,321.0 h0.01"/><g style="stroke:none;fill:#000;font-family:Arial;font-size:12pt;text-anchor:end"><text transform="translate(63.6,325.5)">50</text></g><path stroke="#000" d="M71.9,219.5 L80.9,219.5 M575.0,219.5 L566.0,219.5 h0.01"/><g style="stroke:none;fill:#000;font-family:Arial;font-size:12pt;text-anchor:end"><text transform="translate(63.6,224.0)">100</text></g><path stroke="#000" d="M71.9,118.1 L80.9,118.1 M575.0,118.1 L566.0,118.1 h0.01"/><g style="stroke:none;fill:#000;font-family:Arial;font-size:12pt;text-anchor:end"><text transform="translate(63.6,122.6)">150</text></g><path stroke="#000" d="M71.9,16.7 L80.9,16.7 M575.0,16.7 L566.0,16.7 h0.01"/><g style="stroke:none;fill:#000;font-family:Arial;font-size:12pt;text-anchor:end"><text transform="translate(63.6,21.2)">200</text></g><path stroke="#000" d="M71.9,422.4 L71.9,413.4 M71.9,16.7 L71.9,25.7 h0.01"/><g style="stroke:none;fill:#000;font-family:Arial;font-size:12pt;text-anchor:middle"><text transform="translate(71.9,444.9)">0</text></g><path stroke="#000" d="M150.5,422.4 L150.5,413.4 M150.5,16.7 L150.5,25.7 h0.01"/><g style="stroke:none;fill:#000;font-family:Arial;font-size:12pt;text-anchor:middle"><text transform="translate(150.5,444.9)">20</text></g><path stroke="#000" d="M229.1,422.4 L229.1,413.4 M229.1,16.7 L229.1,25.7 h0.01"/><g style="stroke:none;fill:#000;font-family:Arial;font-size:12pt;text-anchor:middle"><text transform="translate(229.1,444.9)">40</text></g><path stroke="#000" d="M307.7,422.4 L307.7,413.4 M307.7,16.7 L307.7,25.7 h0.01"/><g style="stroke:none;fill:#000;font-family:Arial;font-size:12pt;text-anchor:middle"><text transform="translate(307.7,444.9)">60</text></g><path stroke="#000" d="M386.3,422.4 L386.3,413.4 M386.3,16.7 L386.3,25.7 h0.01"/><g style="stroke:none;fill:#000;font-family:Arial;font-size:12pt;text-anchor:middle"><text transform="translate(386.3,444.9)">80</text></g><path stroke="#000" d="M464.9,422.4 L464.9,413.4 M464.9,16.7 L464.9,25.7 h0.01"/><g style="stroke:none;fill:#000;font-family:Arial;font-size:12pt;text-anchor:middle"><text transform="translate(464.9,444.9)">100</text></g><path stroke="#000" d="M543.6,422.4 L543.6,413.4 M543.6,16.7 L543.6,25.7 h0.01"/><g style="stroke:none;fill:#000;font-family:Arial;font-size:12pt;text-anchor:middle"><text transform="translate(543.6,444.9)">120</text></g><path stroke="#000" d="M71.9,16.7 L71.9,422.4 L575.0,422.4 L575.0,16.7 L71.9,16.7 Z h0.01"/><g style="stroke:none;fill:#000;font-family:Arial;font-size:12pt;text-anchor:middle"><text transform="translate(17.6,219.6) rotate(270)">Data rate, one branch decompressing LZMA [MB/sec]</text></g><g style="stroke:none;fill:#000;font-family:Arial;font-size:12pt;text-anchor:middle"><text transform="translate(323.4,471.9)">Number of threads (Knight&apos;s Landing)</text></g></g><g id="gnuplot_plot_1"><title>gnuplot_plot_1</title><g style="fill:none;color:red;stroke:currentColor;stroke-width:1;stroke-linecap:butt;stroke-linejoin:miter"><use color="red" transform="translate(75.8,410.7) scale(4.50)" xlink:href="#gpPt0"/><use color="red" transform="translate(79.8,400.4) scale(4.50)" xlink:href="#gpPt0"/><use color="red" transform="translate(83.7,390.5) scale(4.50)" xlink:href="#gpPt0"/><use color="red" transform="translate(87.6,379.2) scale(4.50)" xlink:href="#gpPt0"/><use color="red" transform="translate(91.6,370.6) scale(4.50)" xlink:href="#gpPt0"/><use color="red" transform="translate(95.5,359.4) scale(4.50)" xlink:href="#gpPt0"/><use color="red" transform="translate(99.4,352.1) scale(4.50)" xlink:href="#gpPt0"/><use color="red" transform="translate(103.3,342.5) scale(4.50)" xlink:href="#gpPt0"/><use color="red" transform="translate(107.3,330.3) scale(4.50)" xlink:href="#gpPt0"/><use color="red" transform="translate(111.2,330.6) scale(4.50)" xlink:href="#gpPt0"/><use color="red" transform="translate(115.1,313.5) scale(4.50)" xlink:href="#gpPt0"/><use color="red" transform="translate(119.1,313.6) scale(4.50)" xlink:href="#gpPt0"/><use color="red" transform="translate(123.0,297.0) scale(4.50)" xlink:href="#gpPt0"/><use color="red" transform="translate(126.9,289.1) scale(4.50)" xlink:href="#gpPt0"/><use color="red" transform="translate(130.9,289.6) scale(4.50)" xlink:href="#gpPt0"/><use color="red" transform="translate(134.8,289.7) scale(4.50)" xlink:href="#gpPt0"/><use color="red" transform="translate(138.7,289.8) scale(4.50)" xlink:href="#gpPt0"/><use color="red" transform="translate(142.6,252.5) scale(4.50)" xlink:href="#gpPt0"/><use color="red" transform="translate(146.6,254.2) scale(4.50)" xlink:href="#gpPt0"/><use color="red" transform="translate(150.5,255.1) scale(4.50)" xlink:href="#gpPt0"/><use color="red" transform="translate(154.4,254.5) scale(4.50)" xlink:href="#gpPt0"/><use color="red" transform="translate(158.4,255.3) scale(4.50)" xlink:href="#gpPt0"/><use color="red" transform="translate(162.3,255.0) scale(4.50)" xlink:href="#gpPt0"/><use color="red" transform="translate(166.2,255.7) scale(4.50)" xlink:href="#gpPt0"/><use color="red" transform="translate(170.2,256.1) scale(4.50)" xlink:href="#gpPt0"/><use color="red" transform="translate(174.1,214.6) scale(4.50)" xlink:href="#gpPt0"/><use color="red" transform="translate(178.0,193.8) scale(4.50)" xlink:href="#gpPt0"/><use color="red" transform="translate(182.0,195.0) scale(4.50)" xlink:href="#gpPt0"/><use color="red" transform="translate(185.9,194.2) scale(4.50)" xlink:href="#gpPt0"/><use color="red" transform="translate(189.8,195.1) scale(4.50)" xlink:href="#gpPt0"/><use color="red" transform="translate(193.7,196.4) scale(4.50)" xlink:href="#gpPt0"/><use color="red" transform="translate(197.7,195.6) scale(4.50)" xlink:href="#gpPt0"/><use color="red" transform="translate(201.6,196.5) scale(4.50)" xlink:href="#gpPt0"/><use color="red" transform="translate(205.5,195.5) scale(4.50)" xlink:href="#gpPt0"/><use color="red" transform="translate(209.5,197.1) scale(4.50)" xlink:href="#gpPt0"/><use color="red" transform="translate(213.4,201.1) scale(4.50)" xlink:href="#gpPt0"/><use color="red" transform="translate(217.3,201.3) scale(4.50)" xlink:href="#gpPt0"/><use color="red" transform="translate(221.3,202.3) scale(4.50)" xlink:href="#gpPt0"/><use color="red" transform="translate(225.2,205.5) scale(4.50)" xlink:href="#gpPt0"/><use color="red" transform="translate(229.1,205.8) scale(4.50)" xlink:href="#gpPt0"/><use color="red" transform="translate(233.0,205.0) scale(4.50)" xlink:href="#gpPt0"/><use color="red" transform="translate(237.0,217.8) scale(4.50)" xlink:href="#gpPt0"/><use color="red" transform="translate(240.9,201.2) scale(4.50)" xlink:href="#gpPt0"/><use color="red" transform="translate(244.8,200.7) scale(4.50)" xlink:href="#gpPt0"/><use color="red" transform="translate(248.8,207.6) scale(4.50)" xlink:href="#gpPt0"/><use color="red" transform="translate(252.7,208.2) scale(4.50)" xlink:href="#gpPt0"/><use color="red" transform="translate(256.6,211.3) scale(4.50)" xlink:href="#gpPt0"/><use color="red" transform="translate(260.6,225.1) scale(4.50)" xlink:href="#gpPt0"/><use color="red" transform="translate(264.5,212.5) scale(4.50)" xlink:href="#gpPt0"/><use color="red" transform="translate(268.4,200.5) scale(4.50)" xlink:href="#gpPt0"/><use color="red" transform="translate(272.4,213.9) scale(4.50)" xlink:href="#gpPt0"/><use color="red" transform="translate(276.3,165.1) scale(4.50)" xlink:href="#gpPt0"/><use color="red" transform="translate(280.2,89.1) scale(4.50)" xlink:href="#gpPt0"/><use color="red" transform="translate(284.1,100.2) scale(4.50)" xlink:href="#gpPt0"/><use color="red" transform="translate(288.1,106.0) scale(4.50)" xlink:href="#gpPt0"/><use color="red" transform="translate(292.0,130.8) scale(4.50)" xlink:href="#gpPt0"/><use color="red" transform="translate(295.9,105.1) scale(4.50)" xlink:href="#gpPt0"/><use color="red" transform="translate(299.9,83.6) scale(4.50)" xlink:href="#gpPt0"/><use color="red" transform="translate(303.8,76.8) scale(4.50)" xlink:href="#gpPt0"/><use color="red" transform="translate(307.7,126.8) scale(4.50)" xlink:href="#gpPt0"/><use color="red" transform="translate(311.7,130.6) scale(4.50)" xlink:href="#gpPt0"/><use color="red" transform="translate(315.6,103.2) scale(4.50)" xlink:href="#gpPt0"/><use color="red" transform="translate(319.5,102.5) scale(4.50)" xlink:href="#gpPt0"/><use color="red" transform="translate(323.5,104.4) scale(4.50)" xlink:href="#gpPt0"/><use color="red" transform="translate(327.4,106.5) scale(4.50)" xlink:href="#gpPt0"/><use color="red" transform="translate(331.3,100.4) scale(4.50)" xlink:href="#gpPt0"/><use color="red" transform="translate(335.2,105.2) scale(4.50)" xlink:href="#gpPt0"/><use color="red" transform="translate(339.2,81.6) scale(4.50)" xlink:href="#gpPt0"/><use color="red" transform="translate(343.1,136.7) scale(4.50)" xlink:href="#gpPt0"/><use color="red" transform="translate(347.0,80.3) scale(4.50)" xlink:href="#gpPt0"/><use color="red" transform="translate(351.0,82.7) scale(4.50)" xlink:href="#gpPt0"/><use color="red" transform="translate(354.9,112.1) scale(4.50)" xlink:href="#gpPt0"/><use color="red" transform="translate(358.8,103.8) scale(4.50)" xlink:href="#gpPt0"/><use color="red" transform="translate(362.8,106.9) scale(4.50)" xlink:href="#gpPt0"/><use color="red" transform="translate(366.7,78.5) scale(4.50)" xlink:href="#gpPt0"/><use color="red" transform="translate(370.6,139.4) scale(4.50)" xlink:href="#gpPt0"/><use color="red" transform="translate(374.5,127.0) scale(4.50)" xlink:href="#gpPt0"/><use color="red" transform="translate(378.5,134.1) scale(4.50)" xlink:href="#gpPt0"/><use color="red" transform="translate(382.4,133.1) scale(4.50)" xlink:href="#gpPt0"/><use color="red" transform="translate(386.3,142.8) scale(4.50)" xlink:href="#gpPt0"/><use color="red" transform="translate(390.3,143.1) scale(4.50)" xlink:href="#gpPt0"/><use color="red" transform="translate(394.2,125.6) scale(4.50)" xlink:href="#gpPt0"/><use color="red" transform="translate(398.1,127.4) scale(4.50)" xlink:href="#gpPt0"/><use color="red" transform="translate(402.1,129.0) scale(4.50)" xlink:href="#gpPt0"/><use color="red" transform="translate(406.0,125.5) scale(4.50)" xlink:href="#gpPt0"/><use color="red" transform="translate(409.9,125.4) scale(4.50)" xlink:href="#gpPt0"/><use color="red" transform="translate(413.9,135.8) scale(4.50)" xlink:href="#gpPt0"/><use color="red" transform="translate(417.8,138.5) scale(4.50)" xlink:href="#gpPt0"/><use color="red" transform="translate(421.7,125.1) scale(4.50)" xlink:href="#gpPt0"/><use color="red" transform="translate(425.6,121.9) scale(4.50)" xlink:href="#gpPt0"/><use color="red" transform="translate(429.6,125.7) scale(4.50)" xlink:href="#gpPt0"/><use color="red" transform="translate(433.5,122.8) scale(4.50)" xlink:href="#gpPt0"/><use color="red" transform="translate(437.4,124.0) scale(4.50)" xlink:href="#gpPt0"/><use color="red" transform="translate(441.4,129.7) scale(4.50)" xlink:href="#gpPt0"/><use color="red" transform="translate(445.3,166.5) scale(4.50)" xlink:href="#gpPt0"/><use color="red" transform="translate(449.2,135.1) scale(4.50)" xlink:href="#gpPt0"/><use color="red" transform="translate(453.2,121.8) scale(4.50)" xlink:href="#gpPt0"/><use color="red" transform="translate(457.1,129.9) scale(4.50)" xlink:href="#gpPt0"/><use color="red" transform="translate(461.0,129.2) scale(4.50)" xlink:href="#gpPt0"/><use color="red" transform="translate(464.9,136.0) scale(4.50)" xlink:href="#gpPt0"/><use color="red" transform="translate(468.9,125.7) scale(4.50)" xlink:href="#gpPt0"/><use color="red" transform="translate(472.8,136.5) scale(4.50)" xlink:href="#gpPt0"/><use color="red" transform="translate(476.7,116.8) scale(4.50)" xlink:href="#gpPt0"/><use color="red" transform="translate(480.7,136.8) scale(4.50)" xlink:href="#gpPt0"/><use color="red" transform="translate(484.6,145.2) scale(4.50)" xlink:href="#gpPt0"/><use color="red" transform="translate(488.5,139.9) scale(4.50)" xlink:href="#gpPt0"/><use color="red" transform="translate(492.5,132.7) scale(4.50)" xlink:href="#gpPt0"/><use color="red" transform="translate(496.4,119.5) scale(4.50)" xlink:href="#gpPt0"/><use color="red" transform="translate(500.3,170.0) scale(4.50)" xlink:href="#gpPt0"/><use color="red" transform="translate(504.3,126.1) scale(4.50)" xlink:href="#gpPt0"/><use color="red" transform="translate(508.2,127.3) scale(4.50)" xlink:href="#gpPt0"/><use color="red" transform="translate(512.1,120.5) scale(4.50)" xlink:href="#gpPt0"/><use color="red" transform="translate(516.0,124.1) scale(4.50)" xlink:href="#gpPt0"/><use color="red" transform="translate(520.0,124.0) scale(4.50)" xlink:href="#gpPt0"/><use color="red" transform="translate(523.9,118.7) scale(4.50)" xlink:href="#gpPt0"/><use color="red" transform="translate(527.8,122.0) scale(4.50)" xlink:href="#gpPt0"/><use color="red" transform="translate(531.8,123.0) scale(4.50)" xlink:href="#gpPt0"/><use color="red" transform="translate(535.7,129.4) scale(4.50)" xlink:href="#gpPt0"/><use color="red" transform="translate(539.6,134.0) scale(4.50)" xlink:href="#gpPt0"/><use color="red" transform="translate(543.6,119.8) scale(4.50)" xlink:href="#gpPt0"/><use color="red" transform="translate(547.5,122.0) scale(4.50)" xlink:href="#gpPt0"/><use color="red" transform="translate(551.4,155.8) scale(4.50)" xlink:href="#gpPt0"/><use color="red" transform="translate(555.3,120.7) scale(4.50)" xlink:href="#gpPt0"/><use color="red" transform="translate(559.3,120.8) scale(4.50)" xlink:href="#gpPt0"/><use color="red" transform="translate(563.2,125.8) scale(4.50)" xlink:href="#gpPt0"/><use color="red" transform="translate(567.1,119.5) scale(4.50)" xlink:href="#gpPt0"/><use color="red" transform="translate(571.1,119.4) scale(4.50)" xlink:href="#gpPt0"/><use color="red" transform="translate(575.0,128.8) scale(4.50)" xlink:href="#gpPt0"/></g></g><g id="gnuplot_plot_2"><title>gnuplot_plot_2</title><g style="fill:none;color:green;stroke:currentColor;stroke-width:1;stroke-linecap:butt;stroke-linejoin:miter"><path stroke="green" d="M71.9,422.4 L77.0,407.2 L82.1,392.0 L87.1,376.7 L92.2,361.5 L97.3,346.3 L102.4,331.1 L107.5,315.8 L112.6,300.6 L117.6,285.4 L122.7,270.2 L127.8,254.9 L132.9,239.7 L138.0,224.5 L143.0,209.3 L148.1,194.1 L153.2,178.8 L158.3,163.6 L163.4,148.4 L168.5,133.2 L173.5,117.9 L178.6,102.7 L183.7,87.5 L188.8,72.3 L193.9,57.0 L198.9,41.8 L204.0,26.6 L207.3,16.7 h0.01"/></g></g><g style="fill:none;color:#000;stroke:currentColor;stroke-width:1;stroke-linecap:butt;stroke-linejoin:miter"><path stroke="#000" d="M71.9,16.7 L71.9,422.4 L575.0,422.4 L575.0,16.7 L71.9,16.7 Z h0.01"/></g></g></svg>